<?xml version="1.0" encoding="UTF-8"?>
<svg xmlns="http://www.w3.org/2000/svg" width="1200" height="630" viewBox="0 0 1200 630">
  <defs>
    <radialGradient id="glow" cx="20%" cy="28%" r="70%">
      <stop offset="0" stop-color="#b400ff" stop-opacity="0.28"/>
      <stop offset="0.55" stop-color="#b400ff" stop-opacity="0"/>
    </radialGradient>
    <radialGradient id="glowR" cx="80%" cy="70%" r="60%">
      <stop offset="0" stop-color="#b400ff" stop-opacity="0.18"/>
      <stop offset="0.6" stop-color="#b400ff" stop-opacity="0"/>
    </radialGradient>
    <linearGradient id="stripe" x1="0" y1="0" x2="1" y2="0">
      <stop offset="0" stop-color="#b400ff" stop-opacity="0"/>
      <stop offset="0.5" stop-color="#b400ff" stop-opacity="0.9"/>
      <stop offset="1" stop-color="#b400ff" stop-opacity="0"/>
    </linearGradient>
    <pattern id="grid" width="40" height="40" patternUnits="userSpaceOnUse">
      <path d="M 40 0 L 0 0 0 40" fill="none" stroke="#b400ff" stroke-width="0.5" stroke-opacity="0.08"/>
    </pattern>
  </defs>

  <rect width="1200" height="630" fill="#0a0a0f"/>
  <rect width="1200" height="630" fill="url(#grid)"/>
  <rect width="1200" height="630" fill="url(#glow)"/>
  <rect width="1200" height="630" fill="url(#glowR)"/>

  <g><rect x="740" y="130" width="36" height="36" fill="none" stroke="#b400ff" stroke-width="1" opacity="0.15"/><rect x="776" y="130" width="36" height="36" fill="none" stroke="#b400ff" stroke-width="1" opacity="0.15"/><rect x="812" y="130" width="36" height="36" fill="none" stroke="#b400ff" stroke-width="1" opacity="0.15"/><rect x="848" y="130" width="36" height="36" fill="none" stroke="#b400ff" stroke-width="1" opacity="0.15"/><rect x="884" y="130" width="36" height="36" fill="none" stroke="#b400ff" stroke-width="1" opacity="0.15"/><rect x="920" y="130" width="36" height="36" fill="none" stroke="#b400ff" stroke-width="1" opacity="0.15"/><rect x="956" y="130" width="36" height="36" fill="none" stroke="#b400ff" stroke-width="1" opacity="0.15"/><rect x="992" y="130" width="36" height="36" fill="none" stroke="#b400ff" stroke-width="1" opacity="0.15"/><rect x="740" y="166" width="36" height="36" fill="none" stroke="#b400ff" stroke-width="1" opacity="0.15"/><rect x="776" y="166" width="36" height="36" fill="#b400ff" opacity="0.18"/><rect x="812" y="166" width="36" height="36" fill="#b400ff" opacity="0.38"/><rect x="848" y="166" width="36" height="36" fill="#b400ff" opacity="0.35"/><rect x="884" y="166" width="36" height="36" fill="#b400ff" opacity="0.48"/><rect x="920" y="166" width="36" height="36" fill="#b400ff" opacity="0.44"/><rect x="956" y="166" width="36" height="36" fill="#b400ff" opacity="0.33"/><rect x="992" y="166" width="36" height="36" fill="none" stroke="#b400ff" stroke-width="1" opacity="0.15"/><rect x="740" y="202" width="36" height="36" fill="none" stroke="#b400ff" stroke-width="1" opacity="0.15"/><rect x="776" y="202" width="36" height="36" fill="#b400ff" opacity="0.49"/><rect x="812" y="202" width="36" height="36" fill="#b400ff" opacity="0.29"/><rect x="848" y="202" width="36" height="36" fill="#b400ff" opacity="0.16"/><rect x="884" y="202" width="36" height="36" fill="#b400ff" opacity="0.41"/><rect x="920" y="202" width="36" height="36" fill="#b400ff" opacity="0.24"/><rect x="956" y="202" width="36" height="36" fill="#b400ff" opacity="0.19"/><rect x="992" y="202" width="36" height="36" fill="none" stroke="#b400ff" stroke-width="1" opacity="0.15"/><rect x="740" y="238" width="36" height="36" fill="none" stroke="#b400ff" stroke-width="1" opacity="0.15"/><rect x="776" y="238" width="36" height="36" fill="#b400ff" opacity="0.27"/><rect x="812" y="238" width="36" height="36" fill="#b400ff" opacity="0.25"/><rect x="848" y="238" width="36" height="36" fill="#b400ff" opacity="0.9"/><rect x="884" y="238" width="36" height="36" fill="#b400ff" opacity="0.9"/><rect x="920" y="238" width="36" height="36" fill="#b400ff" opacity="0.9"/><rect x="956" y="238" width="36" height="36" fill="#b400ff" opacity="0.19"/><rect x="992" y="238" width="36" height="36" fill="none" stroke="#b400ff" stroke-width="1" opacity="0.15"/><rect x="740" y="274" width="36" height="36" fill="none" stroke="#b400ff" stroke-width="1" opacity="0.15"/><rect x="776" y="274" width="36" height="36" fill="#b400ff" opacity="0.9"/><rect x="812" y="274" width="36" height="36" fill="#b400ff" opacity="0.27"/><rect x="848" y="274" width="36" height="36" fill="#b400ff" opacity="0.20"/><rect x="884" y="274" width="36" height="36" fill="#b400ff" opacity="0.48"/><rect x="920" y="274" width="36" height="36" fill="#b400ff" opacity="0.48"/><rect x="956" y="274" width="36" height="36" fill="#b400ff" opacity="0.9"/><rect x="992" y="274" width="36" height="36" fill="none" stroke="#b400ff" stroke-width="1" opacity="0.15"/><rect x="740" y="310" width="36" height="36" fill="none" stroke="#b400ff" stroke-width="1" opacity="0.15"/><rect x="776" y="310" width="36" height="36" fill="#b400ff" opacity="0.46"/><rect x="812" y="310" width="36" height="36" fill="#b400ff" opacity="0.28"/><rect x="848" y="310" width="36" height="36" fill="#b400ff" opacity="0.27"/><rect x="884" y="310" width="36" height="36" fill="#b400ff" opacity="0.16"/><rect x="920" y="310" width="36" height="36" fill="#b400ff" opacity="0.34"/><rect x="956" y="310" width="36" height="36" fill="#b400ff" opacity="0.47"/><rect x="992" y="310" width="36" height="36" fill="none" stroke="#b400ff" stroke-width="1" opacity="0.15"/><rect x="740" y="346" width="36" height="36" fill="none" stroke="#b400ff" stroke-width="1" opacity="0.15"/><rect x="776" y="346" width="36" height="36" fill="#b400ff" opacity="0.31"/><rect x="812" y="346" width="36" height="36" fill="#b400ff" opacity="0.38"/><rect x="848" y="346" width="36" height="36" fill="#b400ff" opacity="0.16"/><rect x="884" y="346" width="36" height="36" fill="#b400ff" opacity="0.35"/><rect x="920" y="346" width="36" height="36" fill="#b400ff" opacity="0.44"/><rect x="956" y="346" width="36" height="36" fill="#b400ff" opacity="0.17"/><rect x="992" y="346" width="36" height="36" fill="none" stroke="#b400ff" stroke-width="1" opacity="0.15"/><rect x="740" y="382" width="36" height="36" fill="none" stroke="#b400ff" stroke-width="1" opacity="0.15"/><rect x="776" y="382" width="36" height="36" fill="none" stroke="#b400ff" stroke-width="1" opacity="0.15"/><rect x="812" y="382" width="36" height="36" fill="none" stroke="#b400ff" stroke-width="1" opacity="0.15"/><rect x="848" y="382" width="36" height="36" fill="none" stroke="#b400ff" stroke-width="1" opacity="0.15"/><rect x="884" y="382" width="36" height="36" fill="none" stroke="#b400ff" stroke-width="1" opacity="0.15"/><rect x="920" y="382" width="36" height="36" fill="none" stroke="#b400ff" stroke-width="1" opacity="0.15"/><rect x="956" y="382" width="36" height="36" fill="none" stroke="#b400ff" stroke-width="1" opacity="0.15"/><rect x="992" y="382" width="36" height="36" fill="none" stroke="#b400ff" stroke-width="1" opacity="0.15"/></g>

  <rect x="0" y="0" width="1200" height="2" fill="url(#stripe)"/>
  <rect x="0" y="628" width="1200" height="2" fill="url(#stripe)"/>

  <text x="64" y="80" font-family="'JetBrains Mono','Menlo',monospace" font-size="16" font-weight="600" fill="#b400ff" letter-spacing="0.22em" opacity="0.95">// FIELD_NOTES</text>
  <text x="64" y="108" font-family="'JetBrains Mono','Menlo',monospace" font-size="14" font-weight="500" fill="#c9c9d1" letter-spacing="0.18em" opacity="0.75">AI_DEEPFAKES</text>

  <rect x="64" y="140" width="72" height="3" fill="#b400ff" opacity="0.85"/>

  <text x="64" y="250" font-family="'Space Grotesk','Helvetica Neue',Arial,sans-serif" font-size="68" font-weight="700" fill="#f5f5f7" letter-spacing="-0.015em">AI Deepfakes</text>
      <text x="64" y="328" font-family="'Space Grotesk','Helvetica Neue',Arial,sans-serif" font-size="68" font-weight="700" fill="#f5f5f7" letter-spacing="-0.015em">Explained: How to</text>
      <text x="64" y="406" font-family="'Space Grotesk','Helvetica Neue',Arial,sans-serif" font-size="68" font-weight="700" fill="#f5f5f7" letter-spacing="-0.015em">Spot Fake Videos</text>
      <text x="64" y="484" font-family="'Space Grotesk','Helvetica Neue',Arial,sans-serif" font-size="68" font-weight="700" fill="#f5f5f7" letter-spacing="-0.015em">in 2026</text>

  <text x="64" y="584" font-family="'JetBrains Mono','Menlo',monospace" font-size="15" font-weight="500" fill="#9a9aa5" letter-spacing="0.14em">2026.02.28  /  LUCID ROB</text>

  <text x="1136" y="585" text-anchor="end" font-family="'JetBrains Mono','Menlo',monospace" font-size="17" font-weight="700" fill="#b400ff" letter-spacing="0.22em" opacity="0.95">LUCIDROB.COM</text>
  <rect x="980" y="600" width="156" height="2" fill="#b400ff" opacity="0.7"/>
</svg>
