<?xml version="1.0" encoding="UTF-8"?>
<svg xmlns="http://www.w3.org/2000/svg" width="1200" height="630" viewBox="0 0 1200 630">
  <defs>
    <radialGradient id="glow" cx="20%" cy="28%" r="70%">
      <stop offset="0" stop-color="#00f0ff" stop-opacity="0.28"/>
      <stop offset="0.55" stop-color="#00f0ff" stop-opacity="0"/>
    </radialGradient>
    <radialGradient id="glowR" cx="80%" cy="70%" r="60%">
      <stop offset="0" stop-color="#00f0ff" stop-opacity="0.18"/>
      <stop offset="0.6" stop-color="#00f0ff" stop-opacity="0"/>
    </radialGradient>
    <linearGradient id="stripe" x1="0" y1="0" x2="1" y2="0">
      <stop offset="0" stop-color="#00f0ff" stop-opacity="0"/>
      <stop offset="0.5" stop-color="#00f0ff" stop-opacity="0.9"/>
      <stop offset="1" stop-color="#00f0ff" stop-opacity="0"/>
    </linearGradient>
    <pattern id="grid" width="40" height="40" patternUnits="userSpaceOnUse">
      <path d="M 40 0 L 0 0 0 40" fill="none" stroke="#00f0ff" stroke-width="0.5" stroke-opacity="0.08"/>
    </pattern>
  </defs>

  <rect width="1200" height="630" fill="#0a0a0f"/>
  <rect width="1200" height="630" fill="url(#grid)"/>
  <rect width="1200" height="630" fill="url(#glow)"/>
  <rect width="1200" height="630" fill="url(#glowR)"/>

  <g><rect x="740" y="150" width="40" height="40" fill="#00f0ff" opacity="0.71"/><rect x="788" y="150" width="40" height="40" fill="#00f0ff" opacity="0.77"/><rect x="836" y="150" width="40" height="40" fill="#00f0ff" opacity="0.72"/><rect x="884" y="150" width="40" height="40" fill="#00f0ff" opacity="0.52"/><rect x="932" y="150" width="40" height="40" fill="none" stroke="#00f0ff" stroke-width="1.5" stroke-dasharray="3 3" opacity="0.25"/><rect x="740" y="198" width="40" height="40" fill="#00f0ff" opacity="0.60"/><rect x="788" y="198" width="40" height="40" fill="#00f0ff" opacity="0.35"/><rect x="836" y="198" width="40" height="40" fill="none" stroke="#00f0ff" stroke-width="1.5" stroke-dasharray="3 3" opacity="0.25"/><rect x="884" y="198" width="40" height="40" fill="#00f0ff" opacity="0.51"/><rect x="932" y="198" width="40" height="40" fill="#00f0ff" opacity="0.87"/><rect x="740" y="246" width="40" height="40" fill="#00f0ff" opacity="0.57"/><rect x="788" y="246" width="40" height="40" fill="none" stroke="#00f0ff" stroke-width="1.5" stroke-dasharray="3 3" opacity="0.25"/><rect x="836" y="246" width="40" height="40" fill="#00f0ff" opacity="0.36"/><rect x="884" y="246" width="40" height="40" fill="#00f0ff" opacity="0.78"/><rect x="932" y="246" width="40" height="40" fill="none" stroke="#00f0ff" stroke-width="1.5" stroke-dasharray="3 3" opacity="0.25"/><rect x="740" y="294" width="40" height="40" fill="none" stroke="#00f0ff" stroke-width="1.5" stroke-dasharray="3 3" opacity="0.25"/><rect x="788" y="294" width="40" height="40" fill="#00f0ff" opacity="0.56"/><rect x="836" y="294" width="40" height="40" fill="#00f0ff" opacity="0.80"/><rect x="884" y="294" width="40" height="40" fill="none" stroke="#00f0ff" stroke-width="1.5" stroke-dasharray="3 3" opacity="0.25"/><rect x="932" y="294" width="40" height="40" fill="#00f0ff" opacity="0.63"/><rect x="740" y="342" width="40" height="40" fill="#00f0ff" opacity="0.77"/><rect x="788" y="342" width="40" height="40" fill="#00f0ff" opacity="0.67"/><rect x="836" y="342" width="40" height="40" fill="none" stroke="#00f0ff" stroke-width="1.5" stroke-dasharray="3 3" opacity="0.25"/><rect x="884" y="342" width="40" height="40" fill="#00f0ff" opacity="0.49"/><rect x="932" y="342" width="40" height="40" fill="#00f0ff" opacity="0.47"/></g>

  <rect x="0" y="0" width="1200" height="2" fill="url(#stripe)"/>
  <rect x="0" y="628" width="1200" height="2" fill="url(#stripe)"/>

  <text x="64" y="80" font-family="'JetBrains Mono','Menlo',monospace" font-size="16" font-weight="600" fill="#00f0ff" letter-spacing="0.22em" opacity="0.95">// FIELD_NOTES</text>
  <text x="64" y="108" font-family="'JetBrains Mono','Menlo',monospace" font-size="14" font-weight="500" fill="#c9c9d1" letter-spacing="0.18em" opacity="0.75">DEAD_INTERNET</text>

  <rect x="64" y="140" width="72" height="3" fill="#00f0ff" opacity="0.85"/>

  <text x="64" y="250" font-family="'Space Grotesk','Helvetica Neue',Arial,sans-serif" font-size="56" font-weight="700" fill="#f5f5f7" letter-spacing="-0.015em">Dead Internet Theory</text>
      <text x="64" y="316" font-family="'Space Grotesk','Helvetica Neue',Arial,sans-serif" font-size="56" font-weight="700" fill="#f5f5f7" letter-spacing="-0.015em">Explained: Why the Web</text>
      <text x="64" y="382" font-family="'Space Grotesk','Helvetica Neue',Arial,sans-serif" font-size="56" font-weight="700" fill="#f5f5f7" letter-spacing="-0.015em">Actually Died</text>

  <text x="64" y="470" font-family="'JetBrains Mono','Menlo',monospace" font-size="15" font-weight="500" fill="#9a9aa5" letter-spacing="0.14em">2026.04.15  /  LUCID ROB</text>

  <text x="1136" y="585" text-anchor="end" font-family="'JetBrains Mono','Menlo',monospace" font-size="17" font-weight="700" fill="#00f0ff" letter-spacing="0.22em" opacity="0.95">LUCIDROB.COM</text>
  <rect x="980" y="600" width="156" height="2" fill="#00f0ff" opacity="0.7"/>
</svg>
