<?xml version="1.0" encoding="UTF-8"?>
<svg xmlns="http://www.w3.org/2000/svg" width="1200" height="630" viewBox="0 0 1200 630">
  <defs>
    <radialGradient id="glow" cx="20%" cy="28%" r="70%">
      <stop offset="0" stop-color="#ff006e" stop-opacity="0.28"/>
      <stop offset="0.55" stop-color="#ff006e" stop-opacity="0"/>
    </radialGradient>
    <radialGradient id="glowR" cx="80%" cy="70%" r="60%">
      <stop offset="0" stop-color="#ff006e" stop-opacity="0.18"/>
      <stop offset="0.6" stop-color="#ff006e" stop-opacity="0"/>
    </radialGradient>
    <linearGradient id="stripe" x1="0" y1="0" x2="1" y2="0">
      <stop offset="0" stop-color="#ff006e" stop-opacity="0"/>
      <stop offset="0.5" stop-color="#ff006e" stop-opacity="0.9"/>
      <stop offset="1" stop-color="#ff006e" stop-opacity="0"/>
    </linearGradient>
    <pattern id="grid" width="40" height="40" patternUnits="userSpaceOnUse">
      <path d="M 40 0 L 0 0 0 40" fill="none" stroke="#ff006e" stroke-width="0.5" stroke-opacity="0.08"/>
    </pattern>
  </defs>

  <rect width="1200" height="630" fill="#0a0a0f"/>
  <rect width="1200" height="630" fill="url(#grid)"/>
  <rect width="1200" height="630" fill="url(#glow)"/>
  <rect width="1200" height="630" fill="url(#glowR)"/>

  
    <g transform="translate(870 315)">
      <rect x="-170" y="-190" width="340" height="380" fill="none" stroke="#ff006e" stroke-width="3" opacity="0.9"/>
      <rect x="-170" y="-190" width="340" height="380" fill="#ff006e" opacity="0.06"/>
      <rect x="-170" y="-190" width="340" height="48" fill="#ff006e" opacity="0.25"/>
      <rect x="-140" y="-116" width="280" height="18" fill="#ff006e"/>
      <rect x="-140" y="-84" width="220" height="18" fill="#ff006e" opacity="0.6"/>
      <rect x="-140" y="-52" width="260" height="18" fill="#ff006e"/>
      <rect x="-140" y="-20" width="180" height="18" fill="#ff006e" opacity="0.6"/>
      <rect x="-140" y="12"  width="240" height="18" fill="#ff006e"/>
      <rect x="-140" y="44"  width="200" height="18" fill="#ff006e" opacity="0.6"/>
      <rect x="-140" y="76"  width="270" height="18" fill="#ff006e"/>
      <text x="0" y="160" text-anchor="middle" font-family="'JetBrains Mono', monospace" font-size="26" font-weight="700" fill="#ff006e" letter-spacing="0.2em">CLASSIFIED</text>
    </g>

  <rect x="0" y="0" width="1200" height="2" fill="url(#stripe)"/>
  <rect x="0" y="628" width="1200" height="2" fill="url(#stripe)"/>

  <text x="64" y="80" font-family="'JetBrains Mono','Menlo',monospace" font-size="16" font-weight="600" fill="#ff006e" letter-spacing="0.22em" opacity="0.95">// FIELD_NOTES</text>
  <text x="64" y="108" font-family="'JetBrains Mono','Menlo',monospace" font-size="14" font-weight="500" fill="#c9c9d1" letter-spacing="0.18em" opacity="0.75">EPSTEIN_FILES</text>

  <rect x="64" y="140" width="72" height="3" fill="#ff006e" opacity="0.85"/>

  <text x="64" y="250" font-family="'Space Grotesk','Helvetica Neue',Arial,sans-serif" font-size="56" font-weight="700" fill="#f5f5f7" letter-spacing="-0.015em">The Epstein Files</text>
      <text x="64" y="316" font-family="'Space Grotesk','Helvetica Neue',Arial,sans-serif" font-size="56" font-weight="700" fill="#f5f5f7" letter-spacing="-0.015em">Conspiracy Theories</text>
      <text x="64" y="382" font-family="'Space Grotesk','Helvetica Neue',Arial,sans-serif" font-size="56" font-weight="700" fill="#f5f5f7" letter-spacing="-0.015em">Won't Die ... Here's</text>
      <text x="64" y="448" font-family="'Space Grotesk','Helvetica Neue',Arial,sans-serif" font-size="56" font-weight="700" fill="#f5f5f7" letter-spacing="-0.015em">Why</text>

  <text x="64" y="536" font-family="'JetBrains Mono','Menlo',monospace" font-size="15" font-weight="500" fill="#9a9aa5" letter-spacing="0.14em">2026.03.22  /  LUCID ROB</text>

  <text x="1136" y="585" text-anchor="end" font-family="'JetBrains Mono','Menlo',monospace" font-size="17" font-weight="700" fill="#ff006e" letter-spacing="0.22em" opacity="0.95">LUCIDROB.COM</text>
  <rect x="980" y="600" width="156" height="2" fill="#ff006e" opacity="0.7"/>
</svg>
